<svg xmlns="http://www.w3.org/2000/svg" viewBox="0 0 99 90"><title>open_folder</title><g id="0101b09a-e427-4d08-bfe2-20457086f534" data-name="Layer 2"><g id="54ee4dc7-50d3-404e-ba48-ab81a9c3c751" data-name="ICONS"><path d="M93.501817882061,35.485453605651855 a2,2 0 0 0 -1.659999966621399,-0.8799999952316284 h-13 v-8 a2,2 0 0 0 -2,-2 H47.57181757688522 L44.03181666135788,14.335455894470215 a2,2 0 0 0 -1.8899999856948853,-1.350000023841858 H7.011818110942841 a2,2 0 0 0 -2,2 V74.10545253753662 s0,0.07999999821186066 0,0.12999999523162842 s0,0.10999999940395355 0,0.17000000178813934 a2,2 0 0 0 0.07000000029802322,0.30000001192092896 s0,0.09000000357627869 0,0.12999999523162842 a2,2 0 0 0 0.20000000298023224,0.4000000059604645 h0 a2,2 0 0 0 0.28999999165534973,0.33000001311302185 l0.10999999940395355,0.09000000357627869 a2,2 0 0 0 0.25,0.18000000715255737 l0.12999999523162842,0.07000000029802322 a2,2 0 0 0 0.30000001192092896,0.10999999940395355 l0.11999999731779099,0 a2,2 0 0 0 0.44999998807907104,0.05999999865889549 H76.8518163561821 a2,2 0 0 0 0.5299999713897705,-0.07999999821186066 l0.11999999731779099,0 a2,2 0 0 0 0.4699999988079071,-0.23000000417232513 h0 a2,2 0 0 0 0.3799999952316284,-0.3499999940395355 l0.07999999821186066,-0.10000000149011612 a2,2 0 0 0 0.27000001072883606,-0.44999998807907104 h0 l15,-37.5 A2,2 0 0 0 93.501817882061,35.485453605651855 zM9.01181811094284,16.98545551300049 h31.700000762939453 l3.5399999618530273,10.279999732971191 l0,0 a2,2 0 0 0 0.25999999046325684,0.49000000953674316 l0.07000000029802322,0.07999999821186066 a2,2 0 0 0 0.36000001430511475,0.3499999940395355 l0,0 a2,2 0 0 0 0.47999998927116394,0.23999999463558197 l0.11999999731779099,0 a2,2 0 0 0 0.5199999809265137,0.07999999821186066 H74.8518163561821 v6 H22.01181811094284 a2,2 0 0 0 -1.8600000143051147,1.2599999904632568 L9.01181811094284,63.72545528411865 V16.98545551300049 zM75.49181574583054,72.10545253753662 H9.971818149089813 l13.399999618530273,-33.5 H88.89181727170944 z" style="fill:#fff"/></g></g></svg>
